<mxfile host="app.diagrams.net" modified="2023-07-23T12:26:26.653Z" agent="Mozilla/5.0 (Windows NT 10.0; Win64; x64) AppleWebKit/537.36 (KHTML, like Gecko) Chrome/114.0.0.0 Safari/537.36" etag="hXn5X_XjESFNV4g7i1HE" version="21.6.5" type="device">
  <diagram name="Page-1" id="SFNBu4BtW7GAK2M3cmc0">
    <mxGraphModel dx="1434" dy="764" grid="1" gridSize="10" guides="1" tooltips="1" connect="1" arrows="1" fold="1" page="1" pageScale="1" pageWidth="850" pageHeight="1100" math="0" shadow="0">
      <root>
        <mxCell id="0" />
        <mxCell id="1" parent="0" />
        <mxCell id="r3kEveAPPGqDfJrGVq6S-1" value="end" style="rounded=1;whiteSpace=wrap;html=1;" vertex="1" parent="1">
          <mxGeometry x="230" y="620" width="120" height="60" as="geometry" />
        </mxCell>
        <mxCell id="r3kEveAPPGqDfJrGVq6S-2" value="start" style="rounded=1;whiteSpace=wrap;html=1;" vertex="1" parent="1">
          <mxGeometry x="220" y="50" width="120" height="60" as="geometry" />
        </mxCell>
        <mxCell id="r3kEveAPPGqDfJrGVq6S-4" value="" style="shape=flexArrow;endArrow=classic;html=1;rounded=0;" edge="1" parent="1">
          <mxGeometry width="50" height="50" relative="1" as="geometry">
            <mxPoint x="279.5" y="110" as="sourcePoint" />
            <mxPoint x="279.5" y="170" as="targetPoint" />
          </mxGeometry>
        </mxCell>
        <mxCell id="r3kEveAPPGqDfJrGVq6S-5" value="number from user" style="shape=parallelogram;perimeter=parallelogramPerimeter;whiteSpace=wrap;html=1;fixedSize=1;" vertex="1" parent="1">
          <mxGeometry x="220" y="170" width="120" height="60" as="geometry" />
        </mxCell>
        <mxCell id="r3kEveAPPGqDfJrGVq6S-6" value="the number from the user multiplay by 3600" style="rhombus;whiteSpace=wrap;html=1;" vertex="1" parent="1">
          <mxGeometry x="210" y="280" width="140" height="140" as="geometry" />
        </mxCell>
        <mxCell id="r3kEveAPPGqDfJrGVq6S-7" value="" style="shape=flexArrow;endArrow=classic;html=1;rounded=0;exitX=0.417;exitY=1;exitDx=0;exitDy=0;exitPerimeter=0;entryX=0.457;entryY=0.014;entryDx=0;entryDy=0;entryPerimeter=0;" edge="1" parent="1" source="r3kEveAPPGqDfJrGVq6S-5" target="r3kEveAPPGqDfJrGVq6S-6">
          <mxGeometry width="50" height="50" relative="1" as="geometry">
            <mxPoint x="400" y="420" as="sourcePoint" />
            <mxPoint x="450" y="370" as="targetPoint" />
          </mxGeometry>
        </mxCell>
        <mxCell id="r3kEveAPPGqDfJrGVq6S-8" value="" style="shape=flexArrow;endArrow=classic;html=1;rounded=0;exitX=0.5;exitY=1;exitDx=0;exitDy=0;" edge="1" parent="1" source="r3kEveAPPGqDfJrGVq6S-6" target="r3kEveAPPGqDfJrGVq6S-9">
          <mxGeometry width="50" height="50" relative="1" as="geometry">
            <mxPoint x="400" y="420" as="sourcePoint" />
            <mxPoint x="280" y="530" as="targetPoint" />
          </mxGeometry>
        </mxCell>
        <mxCell id="r3kEveAPPGqDfJrGVq6S-9" value="print the result" style="shape=document;whiteSpace=wrap;html=1;boundedLbl=1;" vertex="1" parent="1">
          <mxGeometry x="220" y="490" width="120" height="80" as="geometry" />
        </mxCell>
        <mxCell id="r3kEveAPPGqDfJrGVq6S-10" value="" style="shape=flexArrow;endArrow=classic;html=1;rounded=0;exitX=0.492;exitY=0.875;exitDx=0;exitDy=0;exitPerimeter=0;entryX=0.417;entryY=0.033;entryDx=0;entryDy=0;entryPerimeter=0;" edge="1" parent="1" source="r3kEveAPPGqDfJrGVq6S-9" target="r3kEveAPPGqDfJrGVq6S-1">
          <mxGeometry width="50" height="50" relative="1" as="geometry">
            <mxPoint x="400" y="420" as="sourcePoint" />
            <mxPoint x="450" y="370" as="targetPoint" />
          </mxGeometry>
        </mxCell>
      </root>
    </mxGraphModel>
  </diagram>
</mxfile>
